<?xml version="1.0" encoding="UTF-8" standalone="no"?>
<svg
   xmlns:dc="http://purl.org/dc/elements/1.1/"
   xmlns:cc="http://creativecommons.org/ns#"
   xmlns:rdf="http://www.w3.org/1999/02/22-rdf-syntax-ns#"
   xmlns:svg="http://www.w3.org/2000/svg"
   xmlns="http://www.w3.org/2000/svg"
   id="svg19258"
   version="1.1"
   viewBox="0 0 300 189.09092"
   height="189.09091"
   width="300">
  <defs
     id="defs19252" />
  <metadata
     id="metadata19255">
    <rdf:RDF>
      <cc:Work
         rdf:about="">
        <dc:format>image/svg+xml</dc:format>
        <dc:type
           rdf:resource="http://purl.org/dc/dcmitype/StillImage" />
        <dc:title></dc:title>
      </cc:Work>
    </rdf:RDF>
  </metadata>
  <g
     transform="translate(60,-842.51965)"
     id="layer1">
    <rect
       style="opacity:1;vector-effect:none;fill:#ffffff;fill-opacity:1;stroke:none;stroke-width:1;stroke-linecap:butt;stroke-linejoin:round;stroke-miterlimit:4;stroke-dasharray:none;stroke-dashoffset:0;stroke-opacity:1"
       id="rect1699"
       width="300"
       height="189.09091"
       x="-60"
       y="842.51965" />
    <g
       transform="translate(-3480,-3169.5603)"
       id="g1813">
      <path
         id="path823"
         transform="translate(3420,4012.08)"
         d="M 192.86133 109.98438 L 192.86133 116.44141 C 192.05659 115.52734 191.05268 115.07031 189.84961 115.07031 C 188.81054 115.07031 187.91413 115.33984 187.16406 115.87891 C 186.42193 116.41797 185.85551 117.17574 185.46484 118.15234 C 185.08204 119.12888 184.89062 120.26171 184.89062 121.55078 L 184.89062 121.79688 C 184.89062 123.03907 185.08204 124.14455 185.46484 125.11328 C 185.85551 126.08208 186.42193 126.84377 187.16406 127.39844 C 187.91413 127.9453 188.80277 128.21875 189.82617 128.21875 C 191.13871 128.21875 192.20898 127.68747 193.03711 126.625 L 193.21094 127.98438 L 196.40039 127.98438 L 196.40039 109.98438 L 192.86133 109.98438 z M 142.92188 112.16406 L 142.92188 115.30469 L 141.12891 115.30469 L 141.12891 117.88281 L 142.92188 117.88281 L 142.92188 124.42188 C 142.92188 126.95314 144.1641 128.21875 146.64844 128.21875 C 147.4297 128.21875 148.12498 128.10936 148.73438 127.89062 L 148.73438 125.23047 C 148.46091 125.28514 148.1328 125.3125 147.75 125.3125 C 147.28127 125.3125 146.94924 125.2227 146.75391 125.04297 C 146.55857 124.8555 146.46094 124.51172 146.46094 124.01172 L 146.46094 117.88281 L 148.59375 117.88281 L 148.59375 115.30469 L 146.46094 115.30469 L 146.46094 112.16406 L 142.92188 112.16406 z M 109.09766 115.07031 C 108.06639 115.07031 107.16403 115.24998 106.39062 115.60938 C 105.61716 115.96871 105.02344 116.44918 104.60938 117.05078 C 104.20311 117.65231 103.99805 118.31245 103.99805 119.03125 C 103.99805 120.97658 105.49805 122.26956 108.49805 122.91016 C 109.17778 123.05862 109.70311 123.20707 110.07031 123.35547 C 110.44531 123.50394 110.70315 123.66407 110.84375 123.83594 C 110.99222 124 111.06641 124.20311 111.06641 124.44531 C 111.06641 124.83591 110.90235 125.14841 110.57422 125.38281 C 110.25389 125.60935 109.79294 125.72266 109.19141 125.72266 C 108.54294 125.72266 108.01172 125.57813 107.59766 125.28906 C 107.18346 124.9922 106.96279 124.53909 106.93945 123.92969 L 103.60156 123.92969 C 103.60156 124.64062 103.81447 125.3242 104.24414 125.98047 C 104.68167 126.63674 105.3164 127.17579 106.14453 127.59766 C 106.98046 128.01172 107.96877 128.21875 109.10938 128.21875 C 110.18751 128.21875 111.13278 128.05078 111.94531 127.71484 C 112.76565 127.37891 113.39456 126.91796 113.83203 126.33203 C 114.27736 125.7383 114.5 125.07032 114.5 124.32812 C 114.5 123.50779 114.29297 122.83205 113.87891 122.30078 C 113.47264 121.76951 112.9219 121.35546 112.22656 121.05859 C 111.5313 120.75393 110.68171 120.50785 109.68164 120.32031 C 108.84571 120.16411 108.25388 119.97269 107.90234 119.74609 C 107.55861 119.51956 107.38672 119.22267 107.38672 118.85547 C 107.38672 118.47267 107.53908 118.16017 107.84375 117.91797 C 108.15622 117.67577 108.57027 117.55469 109.08594 117.55469 C 109.71094 117.55469 110.1758 117.69921 110.48047 117.98828 C 110.7852 118.26955 110.9375 118.66407 110.9375 119.17188 L 114.47656 119.17188 C 114.47656 118.37501 114.25778 117.66798 113.82031 117.05078 C 113.38278 116.42578 112.75778 115.94139 111.94531 115.59766 C 111.13278 115.24606 110.18359 115.07031 109.09766 115.07031 z M 134.36523 115.07031 C 133.33397 115.07031 132.43167 115.24998 131.6582 115.60938 C 130.8848 115.96871 130.29102 116.44918 129.87695 117.05078 C 129.47069 117.65231 129.26758 118.31245 129.26758 119.03125 C 129.26758 120.97658 130.76758 122.26956 133.76758 122.91016 C 134.44731 123.05862 134.97076 123.20707 135.33789 123.35547 C 135.71289 123.50394 135.97066 123.66407 136.11133 123.83594 C 136.25973 124 136.33398 124.20311 136.33398 124.44531 C 136.33398 124.83591 136.16993 125.14841 135.8418 125.38281 C 135.52153 125.60935 135.06058 125.72266 134.45898 125.72266 C 133.81058 125.72266 133.2793 125.57813 132.86523 125.28906 C 132.45103 124.9922 132.23232 124.53909 132.20898 123.92969 L 128.86914 123.92969 C 128.86914 124.64062 129.08401 125.3242 129.51367 125.98047 C 129.95114 126.63674 130.58398 127.17579 131.41211 127.59766 C 132.24811 128.01172 133.23635 128.21875 134.37695 128.21875 C 135.45509 128.21875 136.40042 128.05078 137.21289 127.71484 C 138.03322 127.37891 138.66208 126.91796 139.09961 126.33203 C 139.54488 125.7383 139.76758 125.07032 139.76758 124.32812 C 139.76758 123.50779 139.56048 122.83205 139.14648 122.30078 C 138.74022 121.76951 138.18947 121.35546 137.49414 121.05859 C 136.79881 120.75393 135.95117 120.50785 134.95117 120.32031 C 134.11524 120.16411 133.52146 119.97269 133.16992 119.74609 C 132.82612 119.51956 132.6543 119.22267 132.6543 118.85547 C 132.6543 118.47267 132.80659 118.16017 133.11133 117.91797 C 133.42379 117.67577 133.83785 117.55469 134.35352 117.55469 C 134.97852 117.55469 135.44338 117.69921 135.74805 117.98828 C 136.05271 118.26955 136.20508 118.66407 136.20508 119.17188 L 139.74414 119.17188 C 139.74414 118.37501 139.52536 117.66798 139.08789 117.05078 C 138.65036 116.42578 138.02542 115.94139 137.21289 115.59766 C 136.40042 115.24606 135.45117 115.07031 134.36523 115.07031 z M 156.3418 115.07031 C 155.1152 115.07031 154.05276 115.35153 153.1543 115.91406 C 152.2559 116.46873 151.5684 117.24218 151.0918 118.23438 C 150.61526 119.22657 150.37695 120.35549 150.37695 121.62109 L 150.37695 122.06641 C 150.37695 123.19927 150.63087 124.23441 151.13867 125.17188 C 151.65434 126.10941 152.38873 126.85157 153.3418 127.39844 C 154.3028 127.9453 155.43165 128.21875 156.72852 128.21875 C 157.87692 128.21875 158.87692 127.99997 159.72852 127.5625 C 160.58792 127.12497 161.24028 126.58591 161.68555 125.94531 L 159.98633 123.98828 C 159.61913 124.44921 159.17379 124.79685 158.65039 125.03125 C 158.13472 125.25778 157.57222 125.37109 156.96289 125.37109 C 156.14256 125.37109 155.47073 125.14062 154.94727 124.67969 C 154.42387 124.21095 154.09576 123.58204 153.96289 122.79297 L 161.97852 122.79297 L 161.97852 121.29297 C 161.97852 120.02737 161.75973 118.92973 161.32227 118 C 160.88473 117.06253 160.24412 116.3399 159.40039 115.83203 C 158.55659 115.32423 157.53706 115.07031 156.3418 115.07031 z M 171.32031 115.07031 C 170.54685 115.07031 169.85157 115.21484 169.23438 115.50391 C 168.62498 115.78517 168.10937 116.19139 167.6875 116.72266 L 167.57031 115.30469 L 164.25391 115.30469 L 164.25391 127.98438 L 167.79297 127.98438 L 167.79297 119.07812 C 167.9961 118.71099 168.26171 118.42971 168.58984 118.23438 C 168.92578 118.03124 169.3203 117.92969 169.77344 117.92969 C 170.1797 117.92969 170.51173 117.98827 170.76953 118.10547 C 171.03513 118.22267 171.23824 118.4297 171.37891 118.72656 C 171.51951 119.02343 171.58984 119.43748 171.58984 119.96875 L 171.58984 127.98438 L 175.12891 127.98438 L 175.12891 119.52344 C 175.12891 119.39837 175.12519 119.30857 175.11719 119.25391 C 175.31245 118.83204 175.57813 118.50778 175.91406 118.28125 C 176.25 118.04685 176.65621 117.92969 177.13281 117.92969 C 177.53121 117.92969 177.85932 117.98435 178.11719 118.09375 C 178.38279 118.20308 178.58596 118.40626 178.72656 118.70312 C 178.86723 118.99219 178.9375 119.40233 178.9375 119.93359 L 178.9375 127.98438 L 182.47656 127.98438 L 182.47656 119.94531 C 182.47656 118.22658 182.12501 116.98435 181.42188 116.21875 C 180.71874 115.45308 179.72266 115.07031 178.43359 115.07031 C 177.60546 115.07031 176.87114 115.23829 176.23047 115.57422 C 175.59767 115.90235 175.0703 116.37499 174.64844 116.99219 C 174.34377 116.34372 173.90627 115.86325 173.33594 115.55078 C 172.7734 115.23045 172.10151 115.07031 171.32031 115.07031 z M 115.75391 115.30469 L 120.18359 128.04297 L 119.83203 128.96875 C 119.66796 129.41408 119.42972 129.73435 119.11719 129.92969 C 118.80472 130.12495 118.33202 130.22266 117.69922 130.22266 C 117.46482 130.22266 117.28907 130.21894 117.17188 130.21094 L 117.17188 132.88281 C 117.50781 132.96868 117.7695 133.02726 117.95703 133.05859 C 118.15236 133.08993 118.40236 133.10547 118.70703 133.10547 C 119.55076 133.10547 120.24995 132.9375 120.80469 132.60156 C 121.35935 132.27343 121.78125 131.87505 122.07031 131.40625 C 122.35938 130.94532 122.60154 130.43748 122.79688 129.88281 L 127.88281 115.30469 L 124.09766 115.30469 L 121.8125 122.99219 L 119.55078 115.30469 L 115.75391 115.30469 z M 156.31836 117.91797 C 157.03716 117.91797 157.57621 118.11722 157.93555 118.51562 C 158.30301 118.91409 158.49443 119.457 158.50977 120.14453 L 158.50977 120.42578 L 153.99805 120.42578 C 154.11525 119.64451 154.36133 119.0312 154.73633 118.58594 C 155.11913 118.1406 155.64649 117.91797 156.31836 117.91797 z M 190.75195 117.92969 C 191.75195 117.92969 192.45506 118.35158 192.86133 119.19531 L 192.86133 124.09375 C 192.43166 124.93748 191.72072 125.35938 190.72852 125.35938 C 189.92378 125.35938 189.33595 125.03904 188.96875 124.39844 C 188.60942 123.74997 188.43164 122.88281 188.43164 121.79688 L 188.43164 121.55078 C 188.43164 120.44925 188.61522 119.57033 188.98242 118.91406 C 189.35742 118.2578 189.94729 117.92969 190.75195 117.92969 z "
         style="font-style:normal;font-variant:normal;font-weight:bold;font-stretch:normal;font-size:24.00011253px;line-height:1.25;font-family:Heebo;-inkscape-font-specification:'Heebo Bold';text-align:start;letter-spacing:0.40000188px;word-spacing:0px;text-anchor:start;fill:#201a26;fill-opacity:1;stroke:none;stroke-width:1" />
      <g
         id="g1803"
         transform="translate(57.6988,-20)">
        <path
           style="color:#000000;font-style:normal;font-variant:normal;font-weight:normal;font-stretch:normal;font-size:medium;line-height:normal;font-family:sans-serif;font-variant-ligatures:normal;font-variant-position:normal;font-variant-caps:normal;font-variant-numeric:normal;font-variant-alternates:normal;font-feature-settings:normal;text-indent:0;text-align:start;text-decoration:none;text-decoration-line:none;text-decoration-style:solid;text-decoration-color:#000000;letter-spacing:normal;word-spacing:normal;text-transform:none;writing-mode:lr-tb;direction:ltr;text-orientation:mixed;dominant-baseline:auto;baseline-shift:baseline;text-anchor:start;white-space:normal;shape-padding:0;clip-rule:nonzero;display:inline;overflow:visible;visibility:visible;opacity:1;isolation:auto;mix-blend-mode:normal;color-interpolation:sRGB;color-interpolation-filters:linearRGB;solid-color:#000000;solid-opacity:1;vector-effect:none;fill:#201a26;fill-opacity:1;fill-rule:nonzero;stroke:none;stroke-width:2;stroke-linecap:butt;stroke-linejoin:miter;stroke-miterlimit:4;stroke-dasharray:none;stroke-dashoffset:0;stroke-opacity:1;color-rendering:auto;image-rendering:auto;shape-rendering:auto;text-rendering:auto;enable-background:accumulate"
           d="m 3469.301,4094.0649 v 26.0001 h 10.0001 v -4 h -6.0001 v -18.0001 h 6.0001 v -4 z"
           id="path1776" />
        <path
           style="color:#000000;font-style:normal;font-variant:normal;font-weight:normal;font-stretch:normal;font-size:medium;line-height:normal;font-family:sans-serif;font-variant-ligatures:normal;font-variant-position:normal;font-variant-caps:normal;font-variant-numeric:normal;font-variant-alternates:normal;font-feature-settings:normal;text-indent:0;text-align:start;text-decoration:none;text-decoration-line:none;text-decoration-style:solid;text-decoration-color:#000000;letter-spacing:normal;word-spacing:normal;text-transform:none;writing-mode:lr-tb;direction:ltr;text-orientation:mixed;dominant-baseline:auto;baseline-shift:baseline;text-anchor:start;white-space:normal;shape-padding:0;clip-rule:nonzero;display:inline;overflow:visible;visibility:visible;opacity:1;isolation:auto;mix-blend-mode:normal;color-interpolation:sRGB;color-interpolation-filters:linearRGB;solid-color:#000000;solid-opacity:1;vector-effect:none;fill:#201a26;fill-opacity:1;fill-rule:nonzero;stroke:none;stroke-width:2;stroke-linecap:butt;stroke-linejoin:miter;stroke-miterlimit:4;stroke-dasharray:none;stroke-dashoffset:0;stroke-opacity:1;color-rendering:auto;image-rendering:auto;shape-rendering:auto;text-rendering:auto;enable-background:accumulate"
           d="m 3545.3014,4094.0649 v 4 h 6 v 18.0001 h -6 v 4 h 10 v -26.0001 z"
           id="path1778" />
        <path
           id="path1786"
           d="m 3517.3024,4107.0654 16.0001,-9.0001 v 18.0001 z"
           style="fill:#30d475;fill-opacity:1;stroke:none;stroke-width:1px;stroke-linecap:butt;stroke-linejoin:miter;stroke-opacity:1" />
        <circle
           r="9.0000086"
           cy="4107.0649"
           cx="3500.302"
           id="circle1788"
           style="opacity:1;vector-effect:none;fill:#30d475;fill-opacity:1;stroke:none;stroke-width:4.44445705;stroke-linecap:round;stroke-linejoin:round;stroke-miterlimit:4;stroke-dasharray:none;stroke-dashoffset:0;stroke-opacity:0" />
      </g>
    </g>
  </g>
</svg>
