<?xml version="1.0" encoding="UTF-8" standalone="no"?>
<!-- Created with Inkscape (http://www.inkscape.org/) -->

<svg
   xmlns:dc="http://purl.org/dc/elements/1.1/"
   xmlns:cc="http://creativecommons.org/ns#"
   xmlns:rdf="http://www.w3.org/1999/02/22-rdf-syntax-ns#"
   xmlns:svg="http://www.w3.org/2000/svg"
   xmlns="http://www.w3.org/2000/svg"
   xmlns:sodipodi="http://sodipodi.sourceforge.net/DTD/sodipodi-0.dtd"
   xmlns:inkscape="http://www.inkscape.org/namespaces/inkscape"
   width="300"
   height="189.09091"
   viewBox="0 0 300 189.09092"
   version="1.1"
   id="svg19258"
   inkscape:version="0.92.4 (5da689c313, 2019-01-14)"
   sodipodi:docname="systemd-light-mono.svg">
  <defs
     id="defs19252" />
  <sodipodi:namedview
     id="base"
     pagecolor="#ffffff"
     bordercolor="#666666"
     borderopacity="1.0"
     inkscape:pageopacity="0.0"
     inkscape:pageshadow="2"
     inkscape:zoom="1.979899"
     inkscape:cx="55.375111"
     inkscape:cy="130.2468"
     inkscape:document-units="px"
     inkscape:current-layer="g858"
     showgrid="false"
     inkscape:window-width="1920"
     inkscape:window-height="1016"
     inkscape:window-x="0"
     inkscape:window-y="27"
     inkscape:window-maximized="1"
     units="px"
     fit-margin-top="0"
     fit-margin-left="0"
     fit-margin-right="0"
     fit-margin-bottom="0"
     inkscape:snap-page="true"
     inkscape:snap-smooth-nodes="true"
     inkscape:snap-bbox="true"
     inkscape:bbox-nodes="true">
    <inkscape:grid
       type="xygrid"
       id="grid19822"
       originx="60"
       originy="-90.909109" />
  </sodipodi:namedview>
  <metadata
     id="metadata19255">
    <rdf:RDF>
      <cc:Work
         rdf:about="">
        <dc:format>image/svg+xml</dc:format>
        <dc:type
           rdf:resource="http://purl.org/dc/dcmitype/StillImage" />
        <dc:title></dc:title>
      </cc:Work>
    </rdf:RDF>
  </metadata>
  <g
     inkscape:label="Layer 1"
     inkscape:groupmode="layer"
     id="layer1"
     transform="translate(60,-842.51965)">
    <g
       id="g858"
       transform="translate(210,-2.4025912)">
      <rect
         style="opacity:1;vector-effect:none;fill:#ffffff;fill-opacity:1;stroke:none;stroke-width:1;stroke-linecap:butt;stroke-linejoin:round;stroke-miterlimit:4;stroke-dasharray:none;stroke-dashoffset:0;stroke-opacity:1"
         id="rect1660"
         width="300"
         height="189.09091"
         x="-270"
         y="844.92224" />
      <g
         style="stroke-width:0.49999765"
         id="g1676"
         transform="matrix(2.0000094,0,0,2.0000094,-4648.0206,-5843.6032)">
        <path
           style="color:#000000;font-style:normal;font-variant:normal;font-weight:normal;font-stretch:normal;font-size:medium;line-height:normal;font-family:sans-serif;font-variant-ligatures:normal;font-variant-position:normal;font-variant-caps:normal;font-variant-numeric:normal;font-variant-alternates:normal;font-feature-settings:normal;text-indent:0;text-align:start;text-decoration:none;text-decoration-line:none;text-decoration-style:solid;text-decoration-color:#000000;letter-spacing:normal;word-spacing:normal;text-transform:none;writing-mode:lr-tb;direction:ltr;text-orientation:mixed;dominant-baseline:auto;baseline-shift:baseline;text-anchor:start;white-space:normal;shape-padding:0;clip-rule:nonzero;display:inline;overflow:visible;visibility:visible;opacity:1;isolation:auto;mix-blend-mode:normal;color-interpolation:sRGB;color-interpolation-filters:linearRGB;solid-color:#000000;solid-opacity:1;vector-effect:none;fill:#201a26;fill-opacity:1;fill-rule:nonzero;stroke:none;stroke-width:0.99999529;stroke-linecap:butt;stroke-linejoin:miter;stroke-miterlimit:4;stroke-dasharray:none;stroke-dashoffset:0;stroke-opacity:1;color-rendering:auto;image-rendering:auto;shape-rendering:auto;text-rendering:auto;enable-background:accumulate"
           d="m 2213.6504,3385.0195 v 13 h 5 v -2 h -3 v -9 h 3 v -2 z"
           id="path1662"
           inkscape:connector-curvature="0" />
        <path
           style="color:#000000;font-style:normal;font-variant:normal;font-weight:normal;font-stretch:normal;font-size:medium;line-height:normal;font-family:sans-serif;font-variant-ligatures:normal;font-variant-position:normal;font-variant-caps:normal;font-variant-numeric:normal;font-variant-alternates:normal;font-feature-settings:normal;text-indent:0;text-align:start;text-decoration:none;text-decoration-line:none;text-decoration-style:solid;text-decoration-color:#000000;letter-spacing:normal;word-spacing:normal;text-transform:none;writing-mode:lr-tb;direction:ltr;text-orientation:mixed;dominant-baseline:auto;baseline-shift:baseline;text-anchor:start;white-space:normal;shape-padding:0;clip-rule:nonzero;display:inline;overflow:visible;visibility:visible;opacity:1;isolation:auto;mix-blend-mode:normal;color-interpolation:sRGB;color-interpolation-filters:linearRGB;solid-color:#000000;solid-opacity:1;vector-effect:none;fill:#201a26;fill-opacity:1;fill-rule:nonzero;stroke:none;stroke-width:0.99999529;stroke-linecap:butt;stroke-linejoin:miter;stroke-miterlimit:4;stroke-dasharray:none;stroke-dashoffset:0;stroke-opacity:1;color-rendering:auto;image-rendering:auto;shape-rendering:auto;text-rendering:auto;enable-background:accumulate"
           d="m 2251.6504,3385.0195 v 2 h 3 v 9 h -3 v 2 h 5 v -13 z"
           id="path1664"
           inkscape:connector-curvature="0" />
        <g
           aria-label="systemd"
           style="font-style:normal;font-variant:normal;font-weight:bold;font-stretch:normal;font-size:12px;line-height:1.25;font-family:Heebo;-inkscape-font-specification:'Heebo Bold';text-align:start;letter-spacing:0.2px;word-spacing:0px;text-anchor:start;fill:#201a26;fill-opacity:1;stroke:none;stroke-width:0.49999765"
           id="text1670">
          <path
             d="m 2270.3989,3392.4824 q -2.25,-0.4804 -2.25,-1.9394 0,-0.5391 0.3047,-0.9903 0.3106,-0.4511 0.8906,-0.7207 0.5801,-0.2695 1.3536,-0.2695 0.8144,0 1.4238,0.2637 0.6094,0.2578 0.9375,0.7265 0.3281,0.4629 0.3281,1.0606 h -1.7695 q 0,-0.3809 -0.2285,-0.5918 -0.2286,-0.2168 -0.6973,-0.2168 -0.3867,0 -0.6211,0.1816 -0.2285,0.1817 -0.2285,0.4688 0,0.2754 0.2578,0.4453 0.2637,0.1699 0.8906,0.2871 0.75,0.1406 1.2715,0.3691 0.5215,0.2227 0.8262,0.6211 0.3105,0.3985 0.3105,1.0137 0,0.5566 -0.334,1.002 -0.3281,0.4394 -0.9433,0.6914 -0.6094,0.2519 -1.418,0.2519 -0.8555,0 -1.4824,-0.3105 -0.6211,-0.3164 -0.9492,-0.8086 -0.3223,-0.4922 -0.3223,-1.0254 h 1.6699 q 0.018,0.457 0.3282,0.6797 0.3105,0.2168 0.7968,0.2168 0.4512,0 0.6914,-0.1699 0.2461,-0.1758 0.2461,-0.4688 0,-0.1816 -0.1113,-0.3047 -0.1055,-0.1289 -0.3867,-0.2402 -0.2754,-0.1113 -0.7852,-0.2227 z"
             style="font-style:normal;font-variant:normal;font-weight:bold;font-stretch:normal;font-size:12px;font-family:Heebo;-inkscape-font-specification:'Heebo Bold';text-align:start;letter-spacing:0.2px;text-anchor:start;fill:#201a26;fill-opacity:1;stroke-width:0.49999765"
             id="path860" />
          <path
             d="m 2280.0911,3388.6797 -2.543,7.2891 q -0.1464,0.416 -0.3632,0.7617 -0.2168,0.3515 -0.6328,0.5976 -0.4161,0.252 -1.0489,0.252 -0.2285,0 -0.375,-0.024 -0.1406,-0.023 -0.3926,-0.088 v -1.336 q 0.088,0.01 0.2637,0.01 0.4746,0 0.709,-0.1465 0.2344,-0.1465 0.3574,-0.4805 l 0.1758,-0.4629 -2.2148,-6.3691 h 1.8984 l 1.1309,3.8437 1.1425,-3.8437 z"
             style="font-style:normal;font-variant:normal;font-weight:bold;font-stretch:normal;font-size:12px;font-family:Heebo;-inkscape-font-specification:'Heebo Bold';text-align:start;letter-spacing:0.2px;text-anchor:start;fill:#201a26;fill-opacity:1;stroke-width:0.49999765"
             id="path862" />
          <path
             d="m 2283.0333,3392.4824 q -2.25,-0.4804 -2.25,-1.9394 0,-0.5391 0.3047,-0.9903 0.3105,-0.4511 0.8906,-0.7207 0.5801,-0.2695 1.3535,-0.2695 0.8145,0 1.4239,0.2637 0.6093,0.2578 0.9375,0.7265 0.3281,0.4629 0.3281,1.0606 h -1.7695 q 0,-0.3809 -0.2286,-0.5918 -0.2285,-0.2168 -0.6972,-0.2168 -0.3867,0 -0.6211,0.1816 -0.2285,0.1817 -0.2285,0.4688 0,0.2754 0.2578,0.4453 0.2636,0.1699 0.8906,0.2871 0.75,0.1406 1.2715,0.3691 0.5215,0.2227 0.8262,0.6211 0.3105,0.3985 0.3105,1.0137 0,0.5566 -0.334,1.002 -0.3281,0.4394 -0.9433,0.6914 -0.6094,0.2519 -1.418,0.2519 -0.8555,0 -1.4824,-0.3105 -0.6211,-0.3164 -0.9493,-0.8086 -0.3222,-0.4922 -0.3222,-1.0254 h 1.6699 q 0.018,0.457 0.3281,0.6797 0.3106,0.2168 0.7969,0.2168 0.4512,0 0.6914,-0.1699 0.2461,-0.1758 0.2461,-0.4688 0,-0.1816 -0.1113,-0.3047 -0.1055,-0.1289 -0.3867,-0.2402 -0.2754,-0.1113 -0.7852,-0.2227 z"
             style="font-style:normal;font-variant:normal;font-weight:bold;font-stretch:normal;font-size:12px;font-family:Heebo;-inkscape-font-specification:'Heebo Bold';text-align:start;letter-spacing:0.2px;text-anchor:start;fill:#201a26;fill-opacity:1;stroke-width:0.49999765"
             id="path864" />
          <path
             d="m 2290.0243,3393.6836 q 0.2871,0 0.4922,-0.041 v 1.3301 q -0.457,0.164 -1.043,0.164 -1.8632,0 -1.8632,-1.8984 v -3.2695 h -0.8965 v -1.2891 h 0.8965 v -1.5703 h 1.7695 v 1.5703 h 1.0664 v 1.2891 h -1.0664 v 3.0644 q 0,0.375 0.1465,0.5156 0.1465,0.1348 0.498,0.1348 z"
             style="font-style:normal;font-variant:normal;font-weight:bold;font-stretch:normal;font-size:12px;font-family:Heebo;-inkscape-font-specification:'Heebo Bold';text-align:start;letter-spacing:0.2px;text-anchor:start;fill:#201a26;fill-opacity:1;stroke-width:0.49999765"
             id="path866" />
          <path
             d="m 2297.1384,3392.4238 h -4.0078 q 0.1,0.5918 0.4922,0.9434 0.3925,0.3457 1.0078,0.3457 0.457,0 0.8437,-0.1699 0.3926,-0.1758 0.668,-0.5215 l 0.8496,0.9785 q -0.334,0.4805 -0.9785,0.8086 -0.6387,0.3281 -1.5,0.3281 -0.9727,0 -1.6934,-0.4101 -0.7148,-0.4102 -1.1015,-1.1133 -0.3809,-0.7031 -0.3809,-1.5528 v -0.2226 q 0,-0.9492 0.3574,-1.6934 0.3574,-0.7441 1.0313,-1.1601 0.6738,-0.4219 1.5937,-0.4219 0.8965,0 1.5293,0.3809 0.6328,0.3808 0.961,1.0839 0.3281,0.6973 0.3281,1.6465 z m -1.7344,-1.3242 q -0.012,-0.5156 -0.2871,-0.8144 -0.2695,-0.2989 -0.8086,-0.2989 -0.5039,0 -0.791,0.334 -0.2813,0.334 -0.3692,0.9199 h 2.2559 z"
             style="font-style:normal;font-variant:normal;font-weight:bold;font-stretch:normal;font-size:12px;font-family:Heebo;-inkscape-font-specification:'Heebo Bold';text-align:start;letter-spacing:0.2px;text-anchor:start;fill:#201a26;fill-opacity:1;stroke-width:0.49999765"
             id="path868" />
          <path
             d="m 2305.3657,3388.5625 q 0.9668,0 1.4942,0.5742 0.5273,0.5742 0.5273,1.8633 v 4.0195 h -1.7695 v -4.0254 q 0,-0.3984 -0.1055,-0.6152 -0.1055,-0.2226 -0.3047,-0.3047 -0.1933,-0.082 -0.4922,-0.082 -0.3574,0 -0.6093,0.1758 -0.252,0.1699 -0.3985,0.4863 0.01,0.041 0.01,0.1348 v 4.2304 h -1.7696 v -4.0078 q 0,-0.3984 -0.1054,-0.6211 -0.1055,-0.2226 -0.3047,-0.3105 -0.1934,-0.088 -0.4981,-0.088 -0.3398,0 -0.5918,0.1523 -0.246,0.1465 -0.3984,0.4219 v 4.4531 h -1.7695 v -6.3398 h 1.6582 l 0.059,0.709 q 0.3164,-0.3985 0.7734,-0.6094 0.4629,-0.2168 1.043,-0.2168 0.5859,0 1.0078,0.2402 0.4277,0.2344 0.6562,0.7207 0.3165,-0.4629 0.7911,-0.7089 0.4804,-0.252 1.1015,-0.252 z"
             style="font-style:normal;font-variant:normal;font-weight:bold;font-stretch:normal;font-size:12px;font-family:Heebo;-inkscape-font-specification:'Heebo Bold';text-align:start;letter-spacing:0.2px;text-anchor:start;fill:#201a26;fill-opacity:1;stroke-width:0.49999765"
             id="path870" />
          <path
             d="m 2314.3489,3386.0195 v 9 h -1.5937 l -0.088,-0.6797 q -0.6211,0.7969 -1.6055,0.7969 -0.7676,0 -1.3301,-0.4101 -0.5566,-0.4161 -0.8496,-1.1426 -0.2871,-0.7266 -0.2871,-1.6582 v -0.1231 q 0,-0.9668 0.2871,-1.6992 0.293,-0.7324 0.8496,-1.1367 0.5625,-0.4043 1.3418,-0.4043 0.9024,0 1.5059,0.6855 v -3.2285 z m -2.8359,7.6875 q 0.7441,0 1.0664,-0.6328 v -2.4492 q -0.3047,-0.6328 -1.0547,-0.6328 -0.6035,0 -0.8848,0.4922 -0.2753,0.4922 -0.2753,1.3183 v 0.1231 q 0,0.8144 0.2695,1.3008 0.2754,0.4804 0.8789,0.4804 z"
             style="font-style:normal;font-variant:normal;font-weight:bold;font-stretch:normal;font-family:Heebo;-inkscape-font-specification:'Heebo Bold';fill:#201a26;fill-opacity:1;stroke-width:0.49999765"
             id="path872" />
        </g>
        <path
           inkscape:connector-curvature="0"
           id="path1672"
           d="m 2237.651,3391.5197 8,-4.5 v 9 z"
           style="fill:#201a26;fill-opacity:1;stroke:none;stroke-width:0.49999765px;stroke-linecap:butt;stroke-linejoin:miter;stroke-opacity:1"
           sodipodi:nodetypes="cccc" />
        <circle
           r="4.4999833"
           cy="3391.5195"
           cx="2229.1509"
           id="circle1674"
           style="opacity:1;vector-effect:none;fill:#201a26;fill-opacity:1;stroke:none;stroke-width:2.22221804;stroke-linecap:round;stroke-linejoin:round;stroke-miterlimit:4;stroke-dasharray:none;stroke-dashoffset:0;stroke-opacity:0" />
      </g>
    </g>
  </g>
</svg>
